
    <group> lokey=0 hikey=0 pitch_keycenter=0 pitch_keytrack=1

    <region> lovel=1 hivel=127 amp_velcurve_127=0 sample=samples/music0.wv
    
    <group> lokey=1 hikey=1 pitch_keycenter=1 pitch_keytrack=1

    <region> lovel=1 hivel=127 amp_velcurve_127=0 sample=samples/music1.wv
    
    
    
    <group> lokey=2 hikey=2 pitch_keycenter=2 pitch_keytrack=1

    <region> lovel=1 hivel=127 amp_velcurve_127=0 sample=samples/music2.wv
    
    
    
    <group> lokey=3 hikey=3 pitch_keycenter=3 pitch_keytrack=1

    <region> lovel=1 hivel=127 amp_velcurve_127=0 sample=samples/music3.wv
    
    
    
    <group> lokey=4 hikey=4 pitch_keycenter=4 pitch_keytrack=1

    <region> lovel=1 hivel=127 amp_velcurve_127=0 sample=samples/music4.wv
    
    
    
    <group> lokey=5 hikey=5 pitch_keycenter=5 pitch_keytrack=1

    <region> lovel=1 hivel=127 amp_velcurve_127=0 sample=samples/music5.wv
    
    
    
    <group> lokey=6 hikey=6 pitch_keycenter=6 pitch_keytrack=1

    <region> lovel=1 hivel=127 amp_velcurve_127=0 sample=samples/music6.wv
    
    
    
    <group> lokey=7 hikey=7 pitch_keycenter=7 pitch_keytrack=1

    <region> lovel=1 hivel=127 amp_velcurve_127=0 sample=samples/music7.wv
    
    
    
    <group> lokey=8 hikey=8 pitch_keycenter=8 pitch_keytrack=1

    <region> lovel=1 hivel=127 amp_velcurve_127=0 sample=samples/music8.wv
    
    
    
    <group> lokey=9 hikey=9 pitch_keycenter=9 pitch_keytrack=1

    <region> lovel=1 hivel=127 amp_velcurve_127=0 sample=samples/music9.wv
    
    
    
    <group> lokey=10 hikey=10 pitch_keycenter=10 pitch_keytrack=1

    <region> lovel=1 hivel=127 amp_velcurve_127=0 sample=samples/music10.wv
    
    
    
    <group> lokey=11 hikey=11 pitch_keycenter=11 pitch_keytrack=1

    <region> lovel=1 hivel=127 amp_velcurve_127=0 sample=samples/music11.wv
    
    
    
    <group> lokey=12 hikey=12 pitch_keycenter=12 pitch_keytrack=1

    <region> lovel=1 hivel=127 amp_velcurve_127=0 sample=samples/music12.wv
    
    
    
    <group> lokey=13 hikey=13 pitch_keycenter=13 pitch_keytrack=1

    <region> lovel=1 hivel=127 amp_velcurve_127=0 sample=samples/music13.wv
    
    
    
    <group> lokey=14 hikey=14 pitch_keycenter=14 pitch_keytrack=1

    <region> lovel=1 hivel=127 amp_velcurve_127=0 sample=samples/music14.wv
    
    
    
    <group> lokey=15 hikey=15 pitch_keycenter=15 pitch_keytrack=1

    <region> lovel=1 hivel=127 amp_velcurve_127=0 sample=samples/music15.wv
    
    
    
    <group> lokey=16 hikey=16 pitch_keycenter=16 pitch_keytrack=1

    <region> lovel=1 hivel=127 amp_velcurve_127=0 sample=samples/music16.wv
    
    
    
    <group> lokey=17 hikey=17 pitch_keycenter=17 pitch_keytrack=1

    <region> lovel=1 hivel=127 amp_velcurve_127=0 sample=samples/music17.wv
    
    
    
    <group> lokey=18 hikey=18 pitch_keycenter=18 pitch_keytrack=1

    <region> lovel=1 hivel=127 amp_velcurve_127=0 sample=samples/music18.wv
    
    
    
    <group> lokey=19 hikey=19 pitch_keycenter=19 pitch_keytrack=1

    <region> lovel=1 hivel=127 amp_velcurve_127=0 sample=samples/music19.wv
    
    
    
    <group> lokey=20 hikey=20 pitch_keycenter=20 pitch_keytrack=1

    <region> lovel=1 hivel=127 amp_velcurve_127=0 sample=samples/music20.wv
    
    
    
    <group> lokey=21 hikey=21 pitch_keycenter=21 pitch_keytrack=1

    <region> lovel=1 hivel=127 amp_velcurve_127=0 sample=samples/music21.wv
    
    
    
    <group> lokey=22 hikey=22 pitch_keycenter=22 pitch_keytrack=1

    <region> lovel=1 hivel=127 amp_velcurve_127=0 sample=samples/music22.wv
    
    
    
    <group> lokey=23 hikey=23 pitch_keycenter=23 pitch_keytrack=1

    <region> lovel=1 hivel=127 amp_velcurve_127=0 sample=samples/music23.wv
    
    
    
    <group> lokey=24 hikey=24 pitch_keycenter=24 pitch_keytrack=1

    <region> lovel=1 hivel=127 amp_velcurve_127=0 sample=samples/music24.wv
    
    
    
    <group> lokey=25 hikey=25 pitch_keycenter=25 pitch_keytrack=1

    <region> lovel=1 hivel=127 amp_velcurve_127=0 sample=samples/music25.wv
    
    
    
    <group> lokey=26 hikey=26 pitch_keycenter=26 pitch_keytrack=1

    <region> lovel=1 hivel=127 amp_velcurve_127=0 sample=samples/music26.wv
    
    
    
    <group> lokey=27 hikey=27 pitch_keycenter=27 pitch_keytrack=1

    <region> lovel=1 hivel=127 amp_velcurve_127=0 sample=samples/music27.wv
    
    
    
    <group> lokey=28 hikey=28 pitch_keycenter=28 pitch_keytrack=1

    <region> lovel=1 hivel=127 amp_velcurve_127=0 sample=samples/music28.wv
    
    
    
    <group> lokey=29 hikey=29 pitch_keycenter=29 pitch_keytrack=1

    <region> lovel=1 hivel=127 amp_velcurve_127=0 sample=samples/music29.wv
    
    
    
    <group> lokey=30 hikey=30 pitch_keycenter=30 pitch_keytrack=1

    <region> lovel=1 hivel=127 amp_velcurve_127=0 sample=samples/music30.wv
    
    
    
    <group> lokey=31 hikey=31 pitch_keycenter=31 pitch_keytrack=1

    <region> lovel=1 hivel=127 amp_velcurve_127=0 sample=samples/music31.wv
    
    
    
    <group> lokey=32 hikey=32 pitch_keycenter=32 pitch_keytrack=1

    <region> lovel=1 hivel=127 amp_velcurve_127=0 sample=samples/music32.wv
    
    
    
    <group> lokey=33 hikey=33 pitch_keycenter=33 pitch_keytrack=1

    <region> lovel=1 hivel=127 amp_velcurve_127=0 sample=samples/music33.wv
    
    
    
    <group> lokey=34 hikey=34 pitch_keycenter=34 pitch_keytrack=1

    <region> lovel=1 hivel=127 amp_velcurve_127=0 sample=samples/music34.wv
    
    
    
    <group> lokey=35 hikey=35 pitch_keycenter=35 pitch_keytrack=1

    <region> lovel=1 hivel=127 amp_velcurve_127=0 sample=samples/music35.wv
    
    
    
    <group> lokey=36 hikey=36 pitch_keycenter=36 pitch_keytrack=1

    <region> lovel=1 hivel=127 amp_velcurve_127=0 sample=samples/music36.wv
    
    
    
    <group> lokey=37 hikey=37 pitch_keycenter=37 pitch_keytrack=1

    <region> lovel=1 hivel=127 amp_velcurve_127=0 sample=samples/music37.wv
    
    
    
    <group> lokey=38 hikey=38 pitch_keycenter=38 pitch_keytrack=1

    <region> lovel=1 hivel=127 amp_velcurve_127=0 sample=samples/music38.wv
    
    
    
    <group> lokey=39 hikey=39 pitch_keycenter=39 pitch_keytrack=1

    <region> lovel=1 hivel=127 amp_velcurve_127=0 sample=samples/music39.wv
    
    
    
    <group> lokey=40 hikey=40 pitch_keycenter=40 pitch_keytrack=1

    <region> lovel=1 hivel=127 amp_velcurve_127=0 sample=samples/music40.wv
    
    
    
    <group> lokey=41 hikey=41 pitch_keycenter=41 pitch_keytrack=1

    <region> lovel=1 hivel=127 amp_velcurve_127=0 sample=samples/music41.wv
    
    
    
    <group> lokey=42 hikey=42 pitch_keycenter=42 pitch_keytrack=1

    <region> lovel=1 hivel=127 amp_velcurve_127=0 sample=samples/music42.wv
    
    
    
    <group> lokey=43 hikey=43 pitch_keycenter=43 pitch_keytrack=1

    <region> lovel=1 hivel=127 amp_velcurve_127=0 sample=samples/music43.wv
    
    
    
    <group> lokey=44 hikey=44 pitch_keycenter=44 pitch_keytrack=1

    <region> lovel=1 hivel=127 amp_velcurve_127=0 sample=samples/music44.wv
    
    
    
    <group> lokey=45 hikey=45 pitch_keycenter=45 pitch_keytrack=1

    <region> lovel=1 hivel=127 amp_velcurve_127=0 sample=samples/music45.wv
    
    
    
    <group> lokey=46 hikey=46 pitch_keycenter=46 pitch_keytrack=1

    <region> lovel=1 hivel=127 amp_velcurve_127=0 sample=samples/music46.wv
    
    
    
    <group> lokey=47 hikey=47 pitch_keycenter=47 pitch_keytrack=1

    <region> lovel=1 hivel=127 amp_velcurve_127=0 sample=samples/music47.wv
    
    
    
    <group> lokey=48 hikey=48 pitch_keycenter=48 pitch_keytrack=1

    <region> lovel=1 hivel=127 amp_velcurve_127=0 sample=samples/music48.wv
    
    
    
    <group> lokey=49 hikey=49 pitch_keycenter=49 pitch_keytrack=1

    <region> lovel=1 hivel=127 amp_velcurve_127=0 sample=samples/music49.wv
    
    
    
    <group> lokey=50 hikey=50 pitch_keycenter=50 pitch_keytrack=1

    <region> lovel=1 hivel=127 amp_velcurve_127=0 sample=samples/music50.wv
    
    
    
    <group> lokey=51 hikey=51 pitch_keycenter=51 pitch_keytrack=1

    <region> lovel=1 hivel=127 amp_velcurve_127=0 sample=samples/music51.wv
    
    
    
    <group> lokey=52 hikey=52 pitch_keycenter=52 pitch_keytrack=1

    <region> lovel=1 hivel=127 amp_velcurve_127=0 sample=samples/music52.wv
    
    
    
    <group> lokey=53 hikey=53 pitch_keycenter=53 pitch_keytrack=1

    <region> lovel=1 hivel=127 amp_velcurve_127=0 sample=samples/music53.wv
    
    
    
    <group> lokey=54 hikey=54 pitch_keycenter=54 pitch_keytrack=1

    <region> lovel=1 hivel=127 amp_velcurve_127=0 sample=samples/music54.wv
    
    
